<?xml version="1.0" encoding="UTF-8" standalone="no"?>
<!-- Created with Inkscape (http://www.inkscape.org/) -->

<svg
   xmlns:dc="http://purl.org/dc/elements/1.1/"
   xmlns:cc="http://creativecommons.org/ns#"
   xmlns:rdf="http://www.w3.org/1999/02/22-rdf-syntax-ns#"
   xmlns:svg="http://www.w3.org/2000/svg"
   xmlns="http://www.w3.org/2000/svg"
   xmlns:sodipodi="http://sodipodi.sourceforge.net/DTD/sodipodi-0.dtd"
   xmlns:inkscape="http://www.inkscape.org/namespaces/inkscape"
   version="1.1"
   id="svg4518"
   xml:space="preserve"
   width="33.39043"
   height="4.95996"
   viewBox="0 0 33.39043 4.95996"
   sodipodi:docname="dotted_tie.svg"
   inkscape:version="0.92.4 (5da689c313, 2019-01-14)"><metadata
     id="metadata4524"><rdf:RDF><cc:Work
         rdf:about=""><dc:format>image/svg+xml</dc:format><dc:type
           rdf:resource="http://purl.org/dc/dcmitype/StillImage" /><dc:title></dc:title></cc:Work></rdf:RDF></metadata><defs
     id="defs4522"><clipPath
       clipPathUnits="userSpaceOnUse"
       id="clipPath5218"><path
         d="M -966.667,700 H 18300 v 600 H -966.667 Z"
         id="path5216"
         inkscape:connector-curvature="0"
         style="clip-rule:evenodd" /></clipPath><clipPath
       clipPathUnits="userSpaceOnUse"
       id="clipPath5232"><path
         d="m 3583.333,1300 h 10166.666 v 400 H 3583.333 Z"
         id="path5230"
         inkscape:connector-curvature="0"
         style="clip-rule:evenodd" /></clipPath></defs><sodipodi:namedview
     pagecolor="#ffffff"
     bordercolor="#666666"
     borderopacity="1"
     objecttolerance="10"
     gridtolerance="10"
     guidetolerance="10"
     inkscape:pageopacity="0"
     inkscape:pageshadow="2"
     inkscape:window-width="1920"
     inkscape:window-height="1017"
     id="namedview4520"
     showgrid="false"
     inkscape:zoom="9.0852507"
     inkscape:cx="22.386602"
     inkscape:cy="9.4034264"
     inkscape:window-x="1912"
     inkscape:window-y="-8"
     inkscape:window-maximized="1"
     inkscape:current-layer="g4526" /><g
     id="g4526"
     inkscape:groupmode="layer"
     inkscape:label="LA SUPERBE - Full score (1)"
     transform="matrix(1.3333333,0,0,-1.3333333,-338.39788,711.36065)"><g
       id="g4540"
       transform="matrix(0.06,0,0,-0.06,0,792)"><g
         id="g4542"
         transform="translate(4250.6406,4359.6582)"><path
           d="m 0,0 c 0,5.707 -4.626,10.333 -10.333,10.333 -5.707,0 -10.334,-4.626 -10.334,-10.333 0,-5.707 4.627,-10.333 10.334,-10.333 C -4.626,-10.333 0,-5.707 0,0 Z"
           style="fill:#000000;fill-opacity:1;fill-rule:evenodd;stroke:none"
           id="path4544"
           inkscape:connector-curvature="0" /></g></g><g
       id="g4546"
       transform="matrix(0.06,0,0,-0.06,0,792)"><g
         id="g4548"
         transform="translate(4298.1899,4341.1836)"><path
           d="m 0,0 c 0,5.707 -4.626,10.333 -10.333,10.333 -5.707,0 -10.334,-4.626 -10.334,-10.333 0,-5.707 4.627,-10.333 10.334,-10.333 C -4.626,-10.333 0,-5.707 0,0 Z"
           style="fill:#000000;fill-opacity:1;fill-rule:evenodd;stroke:none"
           id="path4550"
           inkscape:connector-curvature="0" /></g></g><g
       id="g4552"
       transform="matrix(0.06,0,0,-0.06,0,792)"><g
         id="g4554"
         transform="translate(4347.5708,4328.3579)"><path
           d="m 0,0 c 0,5.707 -4.626,10.333 -10.333,10.333 -5.708,0 -10.334,-4.626 -10.334,-10.333 0,-5.707 4.626,-10.333 10.334,-10.333 C -4.626,-10.333 0,-5.707 0,0 Z"
           style="fill:#000000;fill-opacity:1;fill-rule:evenodd;stroke:none"
           id="path4556"
           inkscape:connector-curvature="0" /></g></g><g
       id="g4558"
       transform="matrix(0.06,0,0,-0.06,0,792)"><g
         id="g4560"
         transform="translate(4398.0332,4320.814)"><path
           d="m 0,0 c 0,5.707 -4.626,10.333 -10.333,10.333 -5.707,0 -10.334,-4.626 -10.334,-10.333 0,-5.707 4.627,-10.333 10.334,-10.333 C -4.626,-10.333 0,-5.707 0,0 Z"
           style="fill:#000000;fill-opacity:1;fill-rule:evenodd;stroke:none"
           id="path4562"
           inkscape:connector-curvature="0" /></g></g><g
       id="g4564"
       transform="matrix(0.06,0,0,-0.06,0,792)"><g
         id="g4566"
         transform="translate(4448.9976,4318.3247)"><path
           d="m 0,0 c 0,5.707 -4.626,10.333 -10.333,10.333 -5.708,0 -10.334,-4.626 -10.334,-10.333 0,-5.707 4.626,-10.333 10.334,-10.333 C -4.626,-10.333 0,-5.707 0,0 Z"
           style="fill:#000000;fill-opacity:1;fill-rule:evenodd;stroke:none"
           id="path4568"
           inkscape:connector-curvature="0" /></g></g><g
       id="g4570"
       transform="matrix(0.06,0,0,-0.06,0,792)"><g
         id="g4572"
         transform="translate(4499.9614,4320.814)"><path
           d="m 0,0 c 0,5.707 -4.626,10.333 -10.333,10.333 -5.707,0 -10.334,-4.626 -10.334,-10.333 0,-5.707 4.627,-10.333 10.334,-10.333 C -4.626,-10.333 0,-5.707 0,0 Z"
           style="fill:#000000;fill-opacity:1;fill-rule:evenodd;stroke:none"
           id="path4574"
           inkscape:connector-curvature="0" /></g></g><g
       id="g4576"
       transform="matrix(0.06,0,0,-0.06,0,792)"><g
         id="g4578"
         transform="translate(4550.4243,4328.3579)"><path
           d="m 0,0 c 0,5.707 -4.626,10.333 -10.333,10.333 -5.708,0 -10.334,-4.626 -10.334,-10.333 0,-5.707 4.626,-10.333 10.334,-10.333 C -4.626,-10.333 0,-5.707 0,0 Z"
           style="fill:#000000;fill-opacity:1;fill-rule:evenodd;stroke:none"
           id="path4580"
           inkscape:connector-curvature="0" /></g></g><g
       id="g4582"
       transform="matrix(0.06,0,0,-0.06,0,792)"><g
         id="g4584"
         transform="translate(4599.8047,4341.1836)"><path
           d="m 0,0 c 0,5.707 -4.626,10.333 -10.333,10.333 -5.707,0 -10.334,-4.626 -10.334,-10.333 0,-5.707 4.627,-10.333 10.334,-10.333 C -4.626,-10.333 0,-5.707 0,0 Z"
           style="fill:#000000;fill-opacity:1;fill-rule:evenodd;stroke:none"
           id="path4586"
           inkscape:connector-curvature="0" /></g></g><g
       id="g4588"
       transform="matrix(0.06,0,0,-0.06,0,792)"><g
         id="g4590"
         transform="translate(4647.354,4359.6582)"><path
           d="m 0,0 c 0,5.707 -4.626,10.333 -10.333,10.333 -5.707,0 -10.334,-4.626 -10.334,-10.333 0,-5.707 4.627,-10.333 10.334,-10.333 C -4.626,-10.333 0,-5.707 0,0 Z"
           style="fill:#000000;fill-opacity:1;fill-rule:evenodd;stroke:none"
           id="path4592"
           inkscape:connector-curvature="0" /></g></g></g></svg>