<?xml version="1.0" encoding="UTF-8" standalone="no"?>
<!-- Created with Inkscape (http://www.inkscape.org/) -->

<svg
   xmlns:dc="http://purl.org/dc/elements/1.1/"
   xmlns:cc="http://creativecommons.org/ns#"
   xmlns:rdf="http://www.w3.org/1999/02/22-rdf-syntax-ns#"
   xmlns:svg="http://www.w3.org/2000/svg"
   xmlns="http://www.w3.org/2000/svg"
   xmlns:sodipodi="http://sodipodi.sourceforge.net/DTD/sodipodi-0.dtd"
   xmlns:inkscape="http://www.inkscape.org/namespaces/inkscape"
   version="1.1"
   id="svg815"
   xml:space="preserve"
   width="121.31599"
   height="50.026665"
   viewBox="0 0 121.31599 50.026665"
   sodipodi:docname="rhythm3.svg"
   inkscape:version="0.92.4 (5da689c313, 2019-01-14)"><metadata
     id="metadata821"><rdf:RDF><cc:Work
         rdf:about=""><dc:format>image/svg+xml</dc:format><dc:type
           rdf:resource="http://purl.org/dc/dcmitype/StillImage" /><dc:title /></cc:Work></rdf:RDF></metadata><defs
     id="defs819" /><sodipodi:namedview
     pagecolor="#ffffff"
     bordercolor="#666666"
     borderopacity="1"
     objecttolerance="10"
     gridtolerance="10"
     guidetolerance="10"
     inkscape:pageopacity="0"
     inkscape:pageshadow="2"
     inkscape:window-width="1920"
     inkscape:window-height="1017"
     id="namedview817"
     showgrid="false"
     inkscape:zoom="9.0852508"
     inkscape:cx="53.858632"
     inkscape:cy="42.157307"
     inkscape:window-x="1912"
     inkscape:window-y="-8"
     inkscape:window-maximized="1"
     inkscape:current-layer="g823" /><g
     id="g823"
     inkscape:groupmode="layer"
     inkscape:label="LA SUPERBE - Full score"
     transform="matrix(1.3333333,0,0,-1.3333333,-56.000039,932.63998)"><g
       id="g825"
       transform="matrix(1,0,0,-1,-631.99997,792)"><g
         id="g827"
         transform="translate(674,102)"><path
           d="M 0,0 H 90.987"
           style="fill:none;stroke:#000000;stroke-width:0.62;stroke-linecap:butt;stroke-linejoin:miter;stroke-miterlimit:2;stroke-dasharray:none;stroke-opacity:1"
           id="path829"
           inkscape:connector-curvature="0" /></g></g><g
       id="g831"
       transform="matrix(1,0,0,-1,-631.99997,792)"><g
         id="g833"
         transform="translate(674,106.96)"><path
           d="M 0,0 H 90.987"
           style="fill:none;stroke:#000000;stroke-width:0.62;stroke-linecap:butt;stroke-linejoin:miter;stroke-miterlimit:2;stroke-dasharray:none;stroke-opacity:1"
           id="path835"
           inkscape:connector-curvature="0" /></g></g><g
       id="g837"
       transform="matrix(1,0,0,-1,-631.99997,792)"><g
         id="g839"
         transform="translate(674,111.92)"><path
           d="M 0,0 H 90.987"
           style="fill:none;stroke:#000000;stroke-width:0.62;stroke-linecap:butt;stroke-linejoin:miter;stroke-miterlimit:2;stroke-dasharray:none;stroke-opacity:1"
           id="path841"
           inkscape:connector-curvature="0" /></g></g><g
       id="g843"
       transform="matrix(1,0,0,-1,-631.99997,816.8019)"><g
         id="g845"
         transform="translate(674,121.84)"><path
           d="M 0,0 H 90.987"
           style="fill:none;stroke:#000000;stroke-width:0.62;stroke-linecap:butt;stroke-linejoin:miter;stroke-miterlimit:2;stroke-dasharray:none;stroke-opacity:1"
           id="path847"
           inkscape:connector-curvature="0" /></g></g><g
       id="g849"
       transform="matrix(1,0,0,-1,-631.99997,792)"><g
         id="g851"
         transform="translate(674,116.88)"><path
           d="M 0,0 H 90.987"
           style="fill:none;stroke:#000000;stroke-width:0.62;stroke-linecap:butt;stroke-linejoin:miter;stroke-miterlimit:2;stroke-dasharray:none;stroke-opacity:1"
           id="path853"
           inkscape:connector-curvature="0" /></g></g><g
       id="g855"
       transform="matrix(1,0,0,-1,-631.99997,792)"><g
         id="g857"
         transform="translate(723.5043,94.56)"><path
           d="M 0,0 V 18.908"
           style="fill:none;stroke:#000000;stroke-width:0.59500003;stroke-linecap:butt;stroke-linejoin:miter;stroke-miterlimit:2;stroke-dasharray:none;stroke-opacity:1"
           id="path859"
           inkscape:connector-curvature="0" /></g></g><g
       id="g861"
       transform="matrix(1,0,0,-1,-631.99997,792)"><g
         id="g863"
         transform="translate(734.7449,94.56)"><path
           d="M 0,0 V 16.428"
           style="fill:none;stroke:#000000;stroke-width:0.59500003;stroke-linecap:butt;stroke-linejoin:miter;stroke-miterlimit:2;stroke-dasharray:none;stroke-opacity:1"
           id="path865"
           inkscape:connector-curvature="0" /></g></g><g
       id="g867"
       transform="matrix(1,0,0,-1,-631.99997,792)"><g
         id="g869"
         transform="translate(745.9856,94.56)"><path
           d="M 0,0 V 13.948"
           style="fill:none;stroke:#000000;stroke-width:0.59500003;stroke-linecap:butt;stroke-linejoin:miter;stroke-miterlimit:2;stroke-dasharray:none;stroke-opacity:1"
           id="path871"
           inkscape:connector-curvature="0" /></g></g><g
       id="g873"
       transform="matrix(1,0,0,-1,-631.99997,792)"><g
         id="g875"
         transform="translate(757.2263,94.56)"><path
           d="M 0,0 V 16.428"
           style="fill:none;stroke:#000000;stroke-width:0.59500003;stroke-linecap:butt;stroke-linejoin:miter;stroke-miterlimit:2;stroke-dasharray:none;stroke-opacity:1"
           id="path877"
           inkscape:connector-curvature="0" /></g></g><g
       aria-label=""
       transform="matrix(1,0,0,-1,85.2237,677.6)"
       style="font-variant:normal;font-weight:normal;font-size:20px;font-family:Bravura;-inkscape-font-specification:Bravura;writing-mode:lr-tb;fill:#000000;fill-opacity:1;fill-rule:nonzero;stroke:none"
       id="text895"><path
         d="M 2.16,2.8 C 4.14,2.8 6.58,0.96 6.58,-0.94 6.58,-2.06 5.68,-2.8 4.4,-2.8 1.96,-2.8 0,-0.98 0,0.94 0,2.1 0.96,2.8 2.16,2.8 Z"
         id="path911"
         inkscape:connector-curvature="0" /><path
         d="m 13.4005,0.31999998 c 1.98,0 4.42,-1.83999998 4.42,-3.73999998 0,-1.12 -0.9,-1.86 -2.18,-1.86 -2.44,0 -4.4,1.82 -4.4,3.74 0,1.15999998 0.96,1.85999998 2.16,1.85999998 z"
         id="path913"
         inkscape:connector-curvature="0" /><path
         d="m 24.641001,-2.16 c 1.98,0 4.42,-1.84 4.42,-3.74 0,-1.12 -0.9,-1.86 -2.18,-1.86 -2.44,0 -4.4,1.82 -4.4,3.74 0,1.16 0.96,1.86 2.16,1.86 z"
         id="path915"
         inkscape:connector-curvature="0" /><path
         d="m 35.8815,0.31999998 c 1.98,0 4.42,-1.83999998 4.42,-3.73999998 0,-1.12 -0.9,-1.86 -2.18,-1.86 -2.44,0 -4.4,1.82 -4.4,3.74 0,1.15999998 0.96,1.85999998 2.16,1.85999998 z"
         id="path917"
         inkscape:connector-curvature="0" /><path
         d="m -33.223999,-5.82 c -0.04,-0.24 0,-0.26 0.12,-0.38 2.16,-2.02 3.8,-4.56 3.8,-7.62 0,-1.74 -0.48,-3.46 -1.3,-4.66 -0.3,-0.44 -0.82,-1 -1.04,-1 -0.28,0 -0.9,0.52 -1.3,0.96 -1.48,1.64 -1.96,4.14 -1.96,6.22 0,1.16 0.14,2.46 0.28,3.28 0.04,0.24 0.06,0.28 -0.18,0.48 -2.88,2.38 -5.94,5.24 -5.94,9.28000002 0,3.47999998 2.38,6.77999998 7.28,6.77999998 0.46,0 0.98,-0.04 1.38,-0.12 0.22,-0.04 0.26,-0.06 0.3,0.18 0.24,1.34 0.54,3.08 0.54,4.02 0,2.96 -2,3.32 -3.18,3.32 -1.08,0 -1.6,-0.32 -1.6,-0.58 0,-0.14 0.18,-0.2 0.64,-0.34 0.62,-0.18 1.34,-0.72 1.34,-1.88 0,-1.1 -0.7,-2.04 -1.92,-2.04 -1.34,0 -2.14,1.06 -2.14,2.3 0,1.3 0.78,3.26 3.8,3.26 1.34,0 3.94,-0.6 3.94,-4 0,-1.14 -0.36,-3.04 -0.58,-4.28 -0.04,-0.24 -0.02,-0.22 0.26,-0.34 2.02,-0.8 3.36,-2.5 3.36,-4.76 0,-2.55999998 -1.88,-4.82 -4.82,-4.82 -0.52,0 -0.52,0 -0.58,-0.36 z m 1.88,-10.56 c 0.66,0 1.2,0.54 1.2,1.64 0,2.22 -1.9,4.02 -3.48,5.4 -0.14,0.12 -0.22,0.1 -0.26,-0.16 -0.08,-0.52 -0.12,-1.2 -0.12,-1.84 0,-3.12 1.44,-5.04 2.66,-5.04 z m -2.18,13.62 c 0.06,0.38 0.06,0.36 -0.3,0.48 -1.76,0.6 -2.9,2.18000002 -2.9,3.88 0,1.8 0.94,3.08 2.3,3.54 0.16,0.06 0.4,0.12 0.54,0.12 0.16,0 0.24,-0.1 0.24,-0.22 0,-0.14 -0.16,-0.2 -0.3,-0.26 -0.84,-0.36 -1.44,-1.22 -1.44,-2.14 0,-1.14 0.78,-1.99999998 2,-2.33999998 0.32,-0.08 0.36,-0.06 0.4,0.16 l 1,5.95999998 c 0.04,0.22 0.02,0.22 -0.28,0.28 -0.32,0.06 -0.72,0.1 -1.12,0.1 -3.5,0 -5.76,-1.94 -5.76,-4.72 0,-1.17999998 0.2,-2.75999998 1.86,-4.64 1.2,-1.34 2.12,-2.08 3.06,-2.84 0.2,-0.16 0.24,-0.14 0.28,0.08 z m 1.38,3.18000002 c -0.04,-0.24 -0.02,-0.3 0.22,-0.28 1.62,0.14 2.96,1.49999998 2.96,3.25999998 0,1.26 -0.76,2.28 -1.88,2.84 -0.24,0.12 -0.28,0.12 -0.32,-0.12 z"
         id="path919"
         inkscape:connector-curvature="0" /><path
         d="m -17.630001,-14.76 c 0.14,-0.06 0.24,-0.22 0.24,-0.34 v -1.42 c 0,-0.1 -0.06,-0.16 -0.14,-0.16 -0.04,0 -0.06,0 -0.1,0.02 0,0 -0.4,0.16 -0.5,0.18 -0.14,0 -0.28,-0.1 -0.28,-0.26 v -2.44 c 0,-0.12 -0.12,-0.22 -0.28,-0.22 -0.2,0 -0.32,0.1 -0.32,0.22 v 2.6 c -0.02,0.2 -0.08,0.46 -0.26,0.58 -0.24,0.14 -0.92,0.42 -1.26,0.5 -0.18,0 -0.24,-0.24 -0.24,-0.4 v -2.4 c 0,-0.12 -0.14,-0.22 -0.28,-0.22 -0.2,0 -0.32,0.1 -0.32,0.22 v 2.7 c 0,0.28 -0.12,0.48 -0.24,0.54 -0.12,0.06 -0.52,0.22 -0.52,0.22 -0.14,0.04 -0.24,0.2 -0.24,0.32 v 1.42 c 0,0.12 0.06,0.18 0.18,0.18 l 0.04,-0.02 c 0.02,0 0.32,-0.12 0.48,-0.2 l 0.02,-0.02 c 0.16,0 0.28,0.2 0.28,0.36 v 1.98 c 0,0.22 -0.1,0.4 -0.22,0.46 -0.12,0.04 -0.54,0.22 -0.54,0.22 -0.14,0.04 -0.24,0.2000004 -0.24,0.3200004 v 1.42 c 0,0.12 0.06,0.18 0.18,0.18 l 0.04,-0.02 c 0.02,0 0.3,-0.12 0.48,-0.18 0.02,-0.02 0.04,-0.02 0.06,-0.02 0.14,0 0.24,0.22 0.24,0.32 v 2.46 c 0,0.12 0.12,0.22 0.26,0.22 0.2,0 0.34,-0.1 0.34,-0.22 v -2.78 c 0,-0.26 0.1,-0.4 0.2,-0.44 l 1.22,-0.5 c 0,0 0.02,0 0.02,0 l 0.04,-0.02 c 0.18,0 0.28,0.24 0.28,0.36 v 2.5 c 0,0.12 0.12,0.22 0.26,0.22 0.22,0 0.34,-0.1 0.34,-0.22 v -2.84 c 0,-0.16 0.08,-0.4 0.22,-0.46 0.14,-0.06 0.56,-0.2200004 0.56,-0.2200004 0.14,-0.06 0.24,-0.22 0.24,-0.34 v -1.42 c 0,-0.1 -0.06,-0.16 -0.14,-0.16 -0.04,0 -0.06,0 -0.1,0.02 l -0.52,0.2 c -0.12,0 -0.26,-0.12 -0.26,-0.36 v -1.86 c 0,-0.14 0.1,-0.52 0.26,-0.58 z m -1.38,3.26 c -0.12,0.4 -1.06,0.8 -1.52,0.8 -0.12,0 -0.22,-0.04 -0.24,-0.1 -0.04,-0.08 -0.06,-0.52 -0.06,-1 0,-0.62 0.02,-1.32 0.06,-1.48 0.04,-0.34 0.96,-0.76 1.46,-0.76 0.14,0 0.26,0.04 0.3,0.12 0.04,0.1 0.08,0.6 0.08,1.14 0,0.54 -0.04,1.1 -0.08,1.28 z"
         id="path921"
         inkscape:connector-curvature="0" /><path
         d="m -11.4135,-7.32 c 0.14,-0.06 0.24,-0.22 0.24,-0.34 v -1.42 c 0,-0.1 -0.06,-0.16 -0.14,-0.16 -0.04,0 -0.06,0 -0.1,0.02 0,0 -0.4,0.16 -0.5,0.18 -0.14,0 -0.28,-0.1 -0.28,-0.26 v -2.44 c 0,-0.12 -0.12,-0.22 -0.28,-0.22 -0.2,0 -0.32,0.1 -0.32,0.22 v 2.6 c -0.02,0.2 -0.08,0.46 -0.26,0.58 -0.24,0.14 -0.92,0.42 -1.26,0.5 -0.18,0 -0.24,-0.24 -0.24,-0.4 v -2.4 c 0,-0.12 -0.14,-0.22 -0.28,-0.22 -0.2,0 -0.32,0.1 -0.32,0.22 v 2.7 c 0,0.28 -0.12,0.48 -0.24,0.54 -0.12,0.06 -0.52,0.22 -0.52,0.22 -0.14,0.04 -0.24,0.2 -0.24,0.32 v 1.42 c 0,0.12 0.06,0.18 0.18,0.18 l 0.04,-0.02 c 0.02,0 0.32,-0.12 0.48,-0.2 l 0.02,-0.02 c 0.16,0 0.28,0.2 0.28,0.36 v 1.98 c 0,0.22 -0.1,0.4 -0.22,0.46 -0.12,0.04 -0.54,0.22 -0.54,0.22 -0.14,0.04 -0.24,0.2 -0.24,0.32 v 1.41999996 c 0,0.12 0.06,0.18 0.18,0.18 l 0.04,-0.02 c 0.02,0 0.3,-0.12 0.48,-0.18 0.02,-0.02 0.04,-0.02 0.06,-0.02 0.14,0 0.24,0.21999968 0.24,0.31999968 V 1.78 c 0,0.12 0.12,0.22 0.26,0.22 0.2,0 0.34,-0.1 0.34,-0.22 V -1 c 0,-0.26 0.1,-0.4 0.2,-0.44 l 1.22,-0.5 c 0,0 0.02,0 0.02,0 l 0.04,-0.02 c 0.18,0 0.28,0.24 0.28,0.36 V 0.89999996 C -12.7935,1.02 -12.6735,1.12 -12.5335,1.12 c 0.22,0 0.34,-0.1 0.34,-0.22000004 V -1.94 c 0,-0.16 0.08,-0.4 0.22,-0.46 0.14,-0.06 0.56,-0.22 0.56,-0.22 0.14,-0.06 0.24,-0.22 0.24,-0.34 v -1.42 c 0,-0.1 -0.06,-0.16 -0.14,-0.16 -0.04,0 -0.06,0 -0.1,0.02 l -0.52,0.2 c -0.12,0 -0.26,-0.12 -0.26,-0.36 v -1.86 c 0,-0.14 0.1,-0.52 0.26,-0.58 z m -1.38,3.26 c -0.12,0.4 -1.06,0.8 -1.52,0.8 -0.12,0 -0.22,-0.04 -0.24,-0.1 -0.04,-0.08 -0.06,-0.52 -0.06,-1 0,-0.62 0.02,-1.32 0.06,-1.48 0.04,-0.34 0.96,-0.76 1.46,-0.76 0.14,0 0.26,0.04 0.3,0.12 0.04,0.1 0.08,0.6 0.08,1.14 0,0.54 -0.04,1.1 -0.08,1.28 z"
         id="path923"
         inkscape:connector-curvature="0" /><path
         d="m -5.1970003,-17.24 c 0.14,-0.06 0.24,-0.22 0.24,-0.34 V -19 c 0,-0.1 -0.06,-0.16 -0.14,-0.16 -0.04,0 -0.06,0 -0.1,0.02 0,0 -0.4,0.16 -0.5,0.18 -0.14,0 -0.28,-0.1 -0.28,-0.26 v -2.44 c 0,-0.12 -0.12,-0.22 -0.28,-0.22 -0.2,0 -0.32,0.1 -0.32,0.22 v 2.6 c -0.02,0.2 -0.08,0.46 -0.26,0.58 -0.24,0.14 -0.92,0.42 -1.26,0.5 -0.18,0 -0.24,-0.24 -0.24,-0.4 v -2.4 c 0,-0.12 -0.14,-0.22 -0.28,-0.22 -0.2,0 -0.32,0.1 -0.32,0.22 v 2.7 c 0,0.28 -0.12,0.48 -0.24,0.54 -0.12,0.06 -0.52,0.22 -0.52,0.22 -0.14,0.04 -0.24,0.2 -0.24,0.32 v 1.42 c 0,0.12 0.06,0.18 0.18,0.18 l 0.04,-0.02 c 0.02,0 0.32,-0.12 0.48,-0.2 l 0.02,-0.02 c 0.16,0 0.28,0.2 0.28,0.36 v 1.98 c 0,0.22 -0.1,0.4 -0.22,0.46 -0.12,0.04 -0.54,0.22 -0.54,0.22 -0.14,0.04 -0.24,0.2 -0.24,0.32 v 1.42 c 0,0.12 0.06,0.18 0.18,0.18 l 0.04,-0.02 c 0.02,0 0.3,-0.12 0.48,-0.18 0.02,-0.02 0.04,-0.02 0.06,-0.02 0.14,0 0.24,0.22 0.24,0.32 v 2.4599999 c 0,0.12 0.12,0.22 0.26,0.22 0.2,0 0.34,-0.1 0.34,-0.22 V -10.92 c 0,-0.26 0.1,-0.4 0.2,-0.44 l 1.22,-0.5 c 0,0 0.02,0 0.02,0 l 0.04,-0.02 c 0.18,0 0.28,0.24 0.28,0.36 v 2.4999999 c 0,0.12 0.12,0.22 0.26,0.22 0.22,0 0.34,-0.1 0.34,-0.22 V -11.86 c 0,-0.16 0.08,-0.4 0.22,-0.46 0.14,-0.06 0.56,-0.22 0.56,-0.22 0.14,-0.06 0.24,-0.22 0.24,-0.34 v -1.42 c 0,-0.1 -0.06,-0.16 -0.14,-0.16 -0.04,0 -0.06,0 -0.1,0.02 l -0.52,0.2 c -0.12,0 -0.26,-0.12 -0.26,-0.36 v -1.86 c 0,-0.14 0.1,-0.52 0.26,-0.58 z m -1.38,3.26 c -0.12,0.4 -1.06,0.8 -1.52,0.8 -0.12,0 -0.22,-0.04 -0.24,-0.1 -0.04,-0.08 -0.06,-0.52 -0.06,-1 0,-0.62 0.02,-1.32 0.06,-1.48 0.04,-0.34 0.96,-0.76 1.46,-0.76 0.14,0 0.26,0.04 0.3,0.12 0.04,0.1 0.08,0.6 0.08,1.14 0,0.54 -0.04,1.1 -0.08,1.28 z"
         id="path925"
         inkscape:connector-curvature="0" /></g><g
       id="g897"
       transform="matrix(0.06,0,0,-0.06,0,792)"><g
         id="g899"
         transform="translate(1520.1112,1617.3333)"><path
           d="M 0,0 V -41.333 H 571.953 V 0 Z"
           style="fill:#000000;fill-opacity:1;fill-rule:nonzero;stroke:none"
           id="path901"
           inkscape:connector-curvature="0" /></g></g><g
       id="g907"
       transform="matrix(1,0,0,-1,-631.99997,792)"><path
         d="M 0,0 Z"
         style="fill:none;stroke:#11cc00;stroke-width:2;stroke-linecap:butt;stroke-linejoin:miter;stroke-miterlimit:2;stroke-dasharray:none;stroke-opacity:1"
         id="path909"
         inkscape:connector-curvature="0" /></g></g></svg>