<?xml version="1.0" encoding="UTF-8" standalone="no"?>
<!-- Created with Inkscape (http://www.inkscape.org/) -->

<svg
   xmlns:dc="http://purl.org/dc/elements/1.1/"
   xmlns:cc="http://creativecommons.org/ns#"
   xmlns:rdf="http://www.w3.org/1999/02/22-rdf-syntax-ns#"
   xmlns:svg="http://www.w3.org/2000/svg"
   xmlns="http://www.w3.org/2000/svg"
   xmlns:sodipodi="http://sodipodi.sourceforge.net/DTD/sodipodi-0.dtd"
   xmlns:inkscape="http://www.inkscape.org/namespaces/inkscape"
   version="1.1"
   id="svg815"
   xml:space="preserve"
   width="42.054665"
   height="26.879999"
   viewBox="0 0 42.054665 26.879999"
   sodipodi:docname="rhythm2.svg"
   inkscape:version="0.92.4 (5da689c313, 2019-01-14)"><metadata
     id="metadata821"><rdf:RDF><cc:Work
         rdf:about=""><dc:format>image/svg+xml</dc:format><dc:type
           rdf:resource="http://purl.org/dc/dcmitype/StillImage" /><dc:title></dc:title></cc:Work></rdf:RDF></metadata><defs
     id="defs819" /><sodipodi:namedview
     pagecolor="#ffffff"
     bordercolor="#666666"
     borderopacity="1"
     objecttolerance="10"
     gridtolerance="10"
     guidetolerance="10"
     inkscape:pageopacity="0"
     inkscape:pageshadow="2"
     inkscape:window-width="1920"
     inkscape:window-height="1017"
     id="namedview817"
     showgrid="false"
     inkscape:zoom="9.0852507"
     inkscape:cx="73.095415"
     inkscape:cy="-0.71293409"
     inkscape:window-x="1912"
     inkscape:window-y="-8"
     inkscape:window-maximized="1"
     inkscape:current-layer="text841" /><g
     id="g823"
     inkscape:groupmode="layer"
     inkscape:label="LA SUPERBE - Full score"
     transform="matrix(1.3333333,0,0,-1.3333333,-239.62786,854.53945)"><g
       id="g825"
       transform="matrix(1,0,0,-1,0,792)"><g
         id="g827"
         transform="translate(186.0015,151.0954)"><path
           d="M 0,0 V 16.428"
           style="fill:none;stroke:#000000;stroke-width:0.59500003;stroke-linecap:butt;stroke-linejoin:miter;stroke-miterlimit:2;stroke-dasharray:none;stroke-opacity:1"
           id="path829"
           inkscape:connector-curvature="0" /></g></g><g
       id="g831"
       transform="matrix(1,0,0,-1,0,792)"><g
         id="g833"
         transform="translate(210.9626,151.0954)"><path
           d="M 0,0 V 16.428"
           style="fill:none;stroke:#000000;stroke-width:0.59500003;stroke-linecap:butt;stroke-linejoin:miter;stroke-miterlimit:2;stroke-dasharray:none;stroke-opacity:1"
           id="path835"
           inkscape:connector-curvature="0" /></g></g><g
       aria-label="
"
       transform="matrix(1,0,0,-1,179.7209,623.5446)"
       style="font-variant:normal;font-weight:normal;font-size:20px;font-family:Bravura;-inkscape-font-specification:Bravura;writing-mode:lr-tb;fill:#000000;fill-opacity:1;fill-rule:nonzero;stroke:none"
       id="text841"><path
         d="M 2.16,2.8 C 4.14,2.8 6.58,0.96 6.58,-0.94 6.58,-2.06 5.68,-2.8 4.4,-2.8 1.96,-2.8 0,-0.98 0,0.94 0,2.1 0.96,2.8 2.16,2.8 Z"
         id="path863"
         inkscape:connector-curvature="0" /><path
         d="m 27.121,2.8 c 1.98,0 4.42,-1.84 4.42,-3.74 0,-1.12 -0.9,-1.86 -2.18,-1.86 -2.44,0 -4.4,1.82 -4.4,3.74 0,1.16 0.96,1.86 2.16,1.86 z"
         id="path865"
         inkscape:connector-curvature="0" /></g><g
       id="g843"
       transform="matrix(0.06,0,0,-0.06,0,792)"><g
         id="g845"
         transform="translate(3095.0642,2559.5903)"><path
           d="M 0,0 V -41.333 H 425.939 V 0 Z"
           style="fill:#000000;fill-opacity:1;fill-rule:nonzero;stroke:none"
           id="path847"
           inkscape:connector-curvature="0" /></g></g><g
       id="g849"
       transform="matrix(0.06,0,0,-0.06,0,792)"><g
         id="g851"
         transform="translate(3411.1948,2621.5903)"><path
           d="M 0,0 V -41.333 H 109.809 V 0 Z"
           style="fill:#000000;fill-opacity:1;fill-rule:nonzero;stroke:none"
           id="path853"
           inkscape:connector-curvature="0" /></g></g><text
       transform="matrix(1,0,0,-1,188.7791,623.5446)"
       style="font-variant:normal;font-weight:normal;font-size:20px;font-family:Bravura;-inkscape-font-specification:Bravura;writing-mode:lr-tb;fill:#000000;fill-opacity:1;fill-rule:nonzero;stroke:none"
       id="text857"><tspan
         x="0"
         y="0"
         id="tspan855"></tspan></text>
<g
       id="g859"
       transform="matrix(1,0,0,-1,0,792)"><path
         d="M 0,0 Z"
         style="fill:none;stroke:#11cc00;stroke-width:2;stroke-linecap:butt;stroke-linejoin:miter;stroke-miterlimit:2;stroke-dasharray:none;stroke-opacity:1"
         id="path861"
         inkscape:connector-curvature="0" /></g></g></svg>